<?xml version="1.0" standalone="no"?>
<!DOCTYPE svg PUBLIC "-//W3C//DTD SVG 20010904//EN"
 "http://www.w3.org/TR/2001/REC-SVG-20010904/DTD/svg10.dtd">
<svg version="1.0" xmlns="http://www.w3.org/2000/svg"
 width="200.000000pt" height="200.000000pt" viewBox="0 0 200.000000 200.000000"
 preserveAspectRatio="xMidYMid meet">
<metadata>
Created by potrace 1.15, written by Peter Selinger 2001-2017
</metadata>
<g transform="translate(0.000000,200.000000) scale(0.100000,-0.100000)"
fill="#0c610e" stroke="none">
<path d="M890 1630 c-245 -19 -431 -58 -482 -100 -19 -16 -21 -21 -9 -29 20
-13 214 -49 341 -62 150 -16 438 -6 565 21 117 25 289 81 290 94 0 15 -55 44
-120 62 -72 20 -404 27 -585 14z"/>
<path d="M1466 1479 c-153 -51 -297 -71 -506 -72 -189 0 -276 8 -458 44 -57
11 -106 18 -109 15 -5 -5 12 -400 23 -550 l6 -78 75 -35 c156 -72 356 -104
534 -84 147 16 260 50 406 122 l121 60 6 72 c3 40 8 177 12 305 5 191 3 232
-8 231 -7 -1 -53 -14 -102 -30z"/>
<path d="M313 1049 c-130 -75 -202 -173 -211 -285 -7 -94 17 -155 92 -230 106
-106 258 -161 471 -171 281 -13 597 73 985 269 210 106 250 137 250 191 0 54
-55 92 -204 142 -109 37 -106 38 -106 -49 0 -87 -9 -117 -47 -152 -70 -65
-275 -141 -460 -170 -132 -20 -366 -15 -458 10 -74 21 -189 73 -209 95 -10 11
-16 52 -20 136 -9 169 -17 245 -24 245 -4 0 -30 -14 -59 -31z"/>
<path d="M1457 826 c-172 -92 -339 -135 -528 -136 -164 0 -335 37 -456 99 -23
11 -45 21 -48 21 -3 0 -5 -21 -3 -47 l3 -48 73 -36 c110 -55 210 -74 382 -73
163 1 281 18 419 64 176 57 261 115 261 176 0 19 -1 34 -2 33 -2 -1 -47 -25
-101 -53z"/>
</g>
</svg>
